<svg width="285" height="285" viewBox="0 0 285 285" fill="none" xmlns="http://www.w3.org/2000/svg">
<path d="M131.785 61.648C122.099 63.8189 114.696 72.0571 111.996 83.6353C111.579 85.4165 111.467 86.9473 111.467 91.1499C111.495 96.1318 111.523 96.5493 112.219 98.4697C113.972 103.34 116.727 105.873 122.266 107.682C125.634 108.795 132.731 113.471 136.878 117.312C140.83 120.986 141.609 123.686 139.411 126.218C138.158 127.638 136.182 128.445 129.753 130.143C114.918 134.095 104.37 136.961 102.978 137.435C99.0263 138.798 94.9628 141.582 91.5117 145.228C87.7543 149.263 85.2216 153.716 83.8579 158.782L83.1064 161.565L82.9951 175.481C82.9394 185 82.9951 189.731 83.1899 190.427C83.3569 190.983 83.9692 191.846 84.5258 192.319C85.4443 193.126 85.6669 193.21 87.0307 193.099C88.0883 193.015 88.7285 192.792 89.2294 192.292C90.7045 190.928 90.7324 190.789 90.7324 177.763C90.7324 170.555 90.8437 165.044 91.0385 164.042C91.9848 158.643 94.7124 153.521 98.6923 149.709C103.646 145.005 105.817 144.17 133.037 136.767C137.24 135.625 141.47 134.317 142.444 133.872C144.81 132.787 147.287 130.365 148.4 128.083C149.124 126.636 149.319 125.884 149.402 123.992C149.653 119.038 147.482 115.058 141.832 110.215C140.162 108.795 139.55 108.1 139.772 107.933C140.329 107.599 155.776 107.654 157.696 108.016C161.287 108.684 165.851 111.384 169.97 115.336C172.865 118.091 174.702 120.791 175.843 123.908C176.483 125.662 176.594 126.385 176.594 129.28C176.594 132.063 176.483 132.926 175.954 134.484C174.757 137.936 172.113 141.248 168.801 143.446C165.378 145.729 163.43 146.452 150.488 150.265C144.671 151.991 141.804 153.577 138.13 157.056C134.79 160.229 132.202 164.209 130.755 168.384C129.53 172.002 129.419 173.839 129.419 193.934C129.419 211.05 129.475 213.054 129.864 213.75C130.783 215.309 131.339 215.42 137.407 215.42C145.84 215.42 151.545 214.752 158.921 212.915C176.455 208.545 192.375 197.273 202.617 182.021C208.712 172.92 212.637 162.539 214.223 151.267C214.835 146.953 214.835 137.295 214.223 132.898C213.138 125.272 211.774 119.873 209.297 113.666C208.1 110.716 206.152 106.458 205.79 106.068C205.734 106.012 204.899 106.708 203.953 107.626C202.979 108.545 201.253 109.825 200.112 110.493C198.971 111.161 197.997 111.746 197.941 111.773C197.886 111.801 198.609 113.416 199.5 115.392C203.369 123.769 205.122 132.007 205.122 141.582C205.122 148.818 204.204 154.551 201.921 161.37C196.605 177.318 184.805 190.789 169.024 198.888C160.257 203.396 148.818 206.235 139.522 206.235H137.49V190.983C137.49 176.399 137.518 175.62 138.075 173.421C139.661 167.131 143.057 162.706 148.679 159.645C150.905 158.42 152.77 157.752 161.287 155.275C168.746 153.104 171.473 151.907 174.702 149.486C179.962 145.506 183.246 140.635 184.693 134.54C185.333 131.924 185.333 126.858 184.693 124.02C183.469 118.481 181.27 114.863 175.537 108.879C171.306 104.509 170.332 103.034 169.636 100.167C168.328 94.6289 170.081 88.0884 174.006 83.8858C176.706 81.0191 176.121 81.1582 186.141 80.9912L194.852 80.8521L193.739 79.0986C191.763 76.065 189.007 73.7549 185.834 72.4468C183.719 71.5562 179.795 71.2778 177.54 71.8067C170.805 73.3931 164.821 79.4883 162.094 87.4761C161.147 90.2871 160.758 93.4321 160.953 97.0503L161.12 100.195H159.088H157.028L156.416 98.4419C155.998 97.3008 155.748 95.77 155.664 93.9053C155.442 89.981 156.026 87.5874 158.114 83.5796C159.867 80.2398 160.034 79.4605 159.283 78.208C158.448 76.7608 156.444 76.3711 154.857 77.3452C153.633 78.0967 151.434 81.52 150.349 84.4146C148.567 89.146 148.289 95.0742 149.625 98.915C149.848 99.4995 150.015 100.028 150.015 100.084C150.015 100.14 148.985 100.195 147.705 100.195H145.394L144.921 99.249C144.086 97.4399 143.558 94.1001 143.752 91.5396C144.114 86.2515 145.951 82.0767 149.931 77.5957C151.267 76.0928 151.657 74.729 151.1 73.4487C150.683 72.3911 149.347 71.5283 148.178 71.5283C144.949 71.5283 139.355 79.0152 137.435 85.9175C136.572 88.9512 136.572 95.5195 137.407 98.3027L137.963 100.195H135.792C133.677 100.195 133.594 100.167 133.204 99.416C131.311 95.7422 130.922 90.0366 132.286 85.5C132.981 83.2735 133.037 82.8003 132.759 81.9375C132.286 80.5737 131.033 79.8223 129.475 79.9614C127.331 80.1841 126.246 81.8819 125.188 86.6411C124.326 90.5654 124.743 95.8535 126.218 99.6943C126.385 100.14 126.19 100.195 124.214 100.195H121.988L121.292 98.8594C119.038 94.7124 118.871 89.2573 120.819 83.3569C122.851 77.2339 126.608 72.6694 131.562 70.3316L133.455 69.4409L160.145 69.3574C183.998 69.3018 187.003 69.3296 188.395 69.7471C194.407 71.4727 198.303 76.3433 199.249 83.3013C200.001 88.7007 197.969 94.5176 194.212 97.8018C193.433 98.4976 192.18 99.3604 191.429 99.7778C188.979 101.114 187.699 101.309 180.992 101.309C177.54 101.309 174.785 101.42 174.785 101.559C174.785 102.06 177.234 105.094 178.709 106.43C181.91 109.324 185.723 110.243 190.26 109.241C198.526 107.432 204.983 100.863 207.376 91.8179C208.323 88.3389 208.267 83.023 207.265 79.1821C204.816 69.8306 198.164 63.3179 189.341 61.6201C186.363 61.0635 134.317 61.0913 131.785 61.648Z" fill="#39545F"/>
<path d="M106.597 76.0649C99.1098 80.4067 94.3227 84.0527 88.6172 89.7305C82.021 96.2988 78.4028 101.197 74.562 108.684C72.0293 113.638 70.8047 116.644 69.4409 121.348C64.7929 137.435 65.6836 154.078 72.0014 169.497C73.6157 173.421 77.6513 180.63 78.2636 180.63C78.375 180.63 78.4863 175.926 78.4863 170.165C78.4863 160.006 78.4585 159.645 77.8183 157.028C76.0371 150.042 75.5918 138.965 76.7607 132.063C78.5141 121.821 82.6889 112.135 88.9233 103.813C93.5156 97.6626 101.142 90.4819 106.207 87.5317C106.986 87.0864 107.098 86.8638 107.237 85.333C107.459 83.1343 108.35 79.8223 109.547 76.7329C110.076 75.3691 110.493 74.2002 110.493 74.1445C110.493 73.8662 109.853 74.1724 106.597 76.0649Z" fill="#39545F"/>
<path d="M71.6674 74.6455C71.6117 74.8403 71.4169 75.5361 71.2499 76.1485C70.9159 77.4844 70.5819 77.8184 68.6337 78.7647C67.6039 79.2656 67.1864 79.6553 67.1308 80.1284C66.9359 81.4365 67.2978 82.0488 68.578 82.522C70.1645 83.1343 71.1664 84.1919 71.4726 85.5835C71.6952 86.669 71.7231 86.6968 73.0312 86.7803C74.5341 86.8916 75.0072 86.6133 75.2299 85.4722C75.4804 84.3032 76.6772 83.023 78.0131 82.5777L79.182 82.188V80.7129C79.182 79.3213 79.1264 79.21 78.3471 78.9595C77.0668 78.542 75.7309 77.4287 75.536 76.5938C75.4247 76.1763 75.1742 75.5083 74.9516 75.063C74.6176 74.395 74.4228 74.3115 73.1703 74.3115C72.3075 74.3115 71.7509 74.4507 71.6674 74.6455Z" fill="#39545F"/>
<path d="M115.698 111.189C115.447 111.439 115.169 112.052 115.058 112.553C114.863 113.666 114.056 114.501 112.219 115.503C110.966 116.171 110.911 116.254 110.911 117.451C110.911 118.676 110.911 118.676 112.274 119.177C113.944 119.761 114.529 120.318 115.03 121.765C115.865 124.186 117.869 124.103 118.898 121.626C119.427 120.346 119.65 120.151 121.264 119.372L123.045 118.509L122.962 117.368C122.878 116.282 122.795 116.171 121.626 115.614C120.095 114.891 119.483 114.223 118.564 112.358C117.98 111.133 117.729 110.911 117.006 110.827C116.477 110.771 115.948 110.911 115.698 111.189Z" fill="#39545F"/>
<path d="M161.147 124.91C160.452 125.244 159.812 125.996 158.921 127.471C157.334 130.115 155.08 132.369 152.937 133.51C150.822 134.596 148.595 135.347 139.578 137.936C129.781 140.774 124.159 142.5 123.129 143.001C122.183 143.446 121.348 144.615 121.348 145.534C121.348 147.204 122.851 148.901 124.354 148.901C124.66 148.901 125.884 148.595 127.081 148.206C128.278 147.816 133.928 146.174 139.578 144.56C155.08 140.162 156.082 139.8 159.116 137.268C161.843 134.985 165.879 129.113 165.879 127.443C165.879 126.524 165.072 125.272 164.209 124.827C163.151 124.27 162.344 124.298 161.147 124.91Z" fill="#39545F"/>
<path d="M112.998 147.426C111.579 147.983 108.072 150.905 106.096 153.187C103.813 155.832 101.643 160.145 100.418 164.459C99.8335 166.547 99.8057 166.964 99.7222 189.258L99.6108 211.941L100.251 212.915C101.531 214.808 104.259 214.891 105.595 213.11C106.179 212.331 106.179 212.108 106.346 190.148C106.43 177.958 106.597 167.66 106.708 167.27C106.819 166.881 107.181 165.768 107.487 164.766C108.684 160.953 110.827 157.529 113.583 154.885C114.529 153.967 115.809 152.77 116.366 152.213C116.95 151.685 117.507 150.877 117.59 150.488C117.869 149.458 117.256 148.122 116.31 147.649C115.531 147.231 113.805 147.12 112.998 147.426Z" fill="#39545F"/>
<path d="M125.328 151.406C121.097 153.521 116.783 159.478 115.197 165.461C114.668 167.438 114.584 168.662 114.473 176.316C114.306 185.5 114.445 186.669 115.586 188.033C116.394 188.98 118.37 189.258 119.622 188.59C121.403 187.671 121.459 187.31 121.654 177.29C121.793 168.439 121.821 168.189 122.517 166.213C123.88 162.4 126.831 158.448 129.864 156.36C131.701 155.108 132.174 153.16 130.95 151.852C129.53 150.321 127.777 150.182 125.328 151.406Z" fill="#39545F"/>
<path d="M169.302 165.1C169.191 165.294 168.829 166.074 168.523 166.853C168.022 168.105 167.799 168.328 166.241 169.08C164.459 169.942 164.153 170.443 164.404 171.863C164.515 172.364 164.849 172.642 165.879 172.976C167.465 173.505 167.938 173.978 168.523 175.62C169.08 177.234 169.414 177.568 170.36 177.568C171.223 177.568 172.28 176.733 172.28 176.038C172.28 174.952 173.171 173.895 174.729 173.171C176.26 172.447 176.316 172.364 176.399 171.25C176.483 170.109 176.455 170.054 175.119 169.386C173.644 168.634 172.28 167.243 172.28 166.463C172.28 165.545 171.473 164.766 170.471 164.766C169.942 164.766 169.441 164.933 169.302 165.1Z" fill="#39545F"/>
</svg>
