<svg width="285" height="285" viewBox="0 0 285 285" fill="none" xmlns="http://www.w3.org/2000/svg">
<path d="M132.898 47.4814C132.453 47.5371 130.866 47.7319 129.419 47.8989C119.761 48.9844 109.714 51.9624 100.335 56.4712C89.9532 61.481 82.4664 66.7412 74.7291 74.4507C67.0753 82.1045 61.4532 90.0088 56.7774 99.7222C52.5191 108.601 50.0143 116.895 48.6227 126.775C47.8155 132.48 47.7599 145.673 48.5392 151.545C49.5133 159.199 50.9884 165.628 53.1036 171.39C54.3004 174.702 54.3561 174.785 54.9405 174.423C55.2467 174.201 56.8888 173.199 58.5587 172.169C64.5426 168.467 71.1388 163.764 76.0372 159.728C76.9 159.004 78.069 158.281 78.6256 158.086C82.1324 156.945 85.027 160.674 83.1622 163.958C82.5499 165.072 81.2696 166.074 73.1983 171.891C69.4967 174.535 60.5348 180.574 58.3082 181.882C57.8907 182.133 58.0021 182.467 59.4215 184.944C61.0636 187.811 63.5406 191.624 65.461 194.184L66.5187 195.659L67.9938 194.629C75.2857 189.48 80.7408 185.473 84.4703 182.467C97.8019 171.696 107.794 160.646 117.034 146.396C118.091 144.782 120.847 140.496 123.185 136.85C133.121 121.459 138.938 113.777 148.011 104.008C155.303 96.1875 164.042 88.5059 172.698 82.3271C178.209 78.4307 184.415 74.395 185.501 74.0332C188.061 73.1704 190.65 75.0908 190.65 77.8462C190.65 79.2656 189.787 80.5737 188.256 81.4922C185.278 83.2456 177.652 88.3667 174.73 90.5376C162.817 99.4717 151.212 111.022 141.999 123.129C139.132 126.914 133.427 135.375 125.049 148.261C110.855 170.109 97.8854 183.357 75.7032 198.693C73.6437 200.14 71.8902 201.337 71.8346 201.393C71.3614 201.782 77.9855 207.961 82.5777 211.44L85.2496 213.444L86.8082 212.275C96.2154 205.4 109.825 193.433 117.423 185.361C126.886 175.286 131.952 168.662 142.361 152.659C157.028 130.087 165.406 119.956 179.016 108.461C187.254 101.503 199.472 93.5435 210.132 88.2275C212.971 86.8081 215.337 85.6113 215.392 85.5557C215.559 85.3887 213.305 82.5776 210.104 78.9038C194.991 61.7036 173.366 50.376 150.571 47.7598C147.176 47.3701 135.514 47.1753 132.898 47.4814ZM133.956 60.5625C135.904 61.5645 136.934 63.2065 136.934 65.3218C136.906 69.3574 132.453 71.751 129.113 69.4966C125.801 67.27 125.912 62.6777 129.28 60.7573C130.616 60.0059 132.675 59.9224 133.956 60.5625ZM162.094 61.9263C164.209 62.9282 165.406 65.5723 164.766 67.8545C163.207 73.7271 154.607 72.4746 154.663 66.3794C154.691 62.4551 158.448 60.2007 162.094 61.9263ZM92.4859 75.2578C95.798 77.0669 95.6866 82.3828 92.319 84.0806C90.8717 84.832 88.7008 84.8877 87.4483 84.2476C86.1959 83.5796 84.9435 81.7427 84.7208 80.2676C84.3868 77.9575 86.1124 75.1465 88.172 74.7012C88.5895 74.6177 89.0626 74.5063 89.2018 74.4507C89.7584 74.2559 91.4562 74.6733 92.4859 75.2578ZM120.485 75.397C122.572 76.4824 123.853 78.5977 123.853 80.9912C123.853 83.5796 121.877 86.1123 119.288 86.8359C114.223 88.2554 109.603 82.355 112.247 77.8462C113.972 74.9238 117.479 73.8662 120.485 75.397ZM148.345 78.208C151.768 79.9614 152.102 84.9155 148.957 86.9473C146.981 88.2554 144.838 88.144 142.834 86.6411C139.94 84.498 140.468 79.4604 143.753 78.041C145.005 77.4844 147.092 77.5679 148.345 78.208ZM77.8741 90.8716C78.4308 91.1221 79.2101 91.5952 79.5719 91.9292C80.3233 92.625 81.2418 94.4897 81.2696 95.3247C81.2696 97.2729 79.7667 99.6108 77.9855 100.334C75.1744 101.531 71.7789 99.8057 70.944 96.7998C69.8585 92.7642 73.9498 89.2573 77.8741 90.8716ZM106.513 91.2612C109.797 92.9312 111.05 96.8833 109.213 99.8335C107.988 101.81 106.43 102.784 104.287 102.923C101.225 103.118 98.8038 101.448 97.8019 98.4419C96.1319 93.3765 101.698 88.7842 106.513 91.2612ZM134.317 94.2393C135.598 94.8516 136.822 96.3267 137.24 97.7183C137.908 99.917 136.683 102.617 134.596 103.563C131.534 104.955 128.055 103.34 127.165 100.14C126.58 97.9409 127.777 95.2412 129.753 94.2671C130.922 93.6826 133.093 93.6548 134.317 94.2393ZM64.9879 107.654C66.296 108.545 67.3536 110.465 67.3536 111.885C67.3258 113.304 66.463 115.03 65.2662 115.948C63.9024 116.978 61.3141 117.201 59.839 116.394C57.3063 115.002 56.36 112.08 57.6124 109.547C58.9762 106.68 62.3439 105.817 64.9879 107.654ZM92.2911 107.459C96.3546 109.408 97.2174 114.167 94.0724 117.201C91.651 119.566 88.4503 119.65 85.9176 117.423C84.3312 116.06 83.7745 114.835 83.7745 112.887C83.7745 108.461 88.339 105.539 92.2911 107.459ZM119.372 109.937C121.821 110.632 123.296 112.581 123.296 115.113C123.296 118.759 119.344 121.069 115.948 119.399C114.668 118.787 113.388 117.062 113.109 115.559C112.72 113.471 114.306 110.827 116.477 110.076C117.841 109.603 118.175 109.575 119.372 109.937ZM79.0152 123.491C82.5221 125.662 82.9952 130.504 79.9615 133.371C76.0929 137.045 69.5802 134.206 69.5802 128.807C69.5802 126.858 70.0812 125.662 71.4449 124.354C73.5602 122.294 76.5104 121.96 79.0152 123.491ZM105.567 125.829C106.875 126.19 108.517 127.582 108.99 128.779C110.827 133.176 106.291 137.323 101.921 135.236C97.9132 133.288 98.3028 127.387 102.561 125.856C103.647 125.467 104.287 125.467 105.567 125.829ZM64.2364 140.106C65.9064 140.969 67.3536 143.251 67.3536 144.921C67.3258 146.953 65.5167 149.18 63.4015 149.764C61.2027 150.349 58.4474 149.124 57.5011 147.148C56.8888 145.812 56.9166 143.558 57.6124 142.222C58.6979 140.106 62.1212 138.993 64.2364 140.106ZM92.2076 141.693C93.7662 142.11 95.3526 143.808 95.6866 145.395C96.4103 148.874 94.2115 151.712 90.7325 151.74C86.0567 151.768 83.8302 145.951 87.3092 142.75C88.6451 141.498 90.2594 141.136 92.2076 141.693Z" fill="#39545F"/>
<path d="M212.859 95.6587C191.985 106.318 177.067 118.509 162.79 136.6L159.812 140.357L164.487 145.534C167.048 148.373 169.581 151.239 170.082 151.879C170.61 152.52 171.167 153.02 171.306 152.965C171.473 152.937 172.642 151.545 173.895 149.848C188.145 131.172 201.81 119.817 221.905 109.909C224.66 108.545 226.97 107.404 227.026 107.32C227.527 106.819 220.597 92.625 219.79 92.458C219.539 92.4023 216.422 93.8496 212.859 95.6587Z" fill="#39545F"/>
<path d="M223.881 117.702C205.957 126.664 193.043 137.435 181.326 153.215C179.6 155.498 177.875 157.919 177.429 158.587L176.65 159.756L178.014 161.287C178.765 162.122 181.131 164.793 183.274 167.243C185.417 169.692 187.31 171.668 187.449 171.696C187.616 171.696 188.479 170.666 189.397 169.414C191.985 165.907 197.552 159.283 200.697 155.971C210.438 145.701 219.205 139.104 229.419 134.29L232.982 132.62L232.815 130.811C232.509 127.638 231.813 123.546 230.95 119.817C230.477 117.813 230.06 115.92 229.976 115.559C229.893 115.225 229.726 114.946 229.642 114.946C229.531 114.946 226.942 116.199 223.881 117.702Z" fill="#39545F"/>
<path d="M229.197 143.279C225.718 145.116 222.294 147.343 218.287 150.376C213.973 153.633 207.905 159.255 207.905 160.006C207.905 160.118 209.38 161.843 211.189 163.819C212.971 165.795 216.756 169.97 219.567 173.087L224.716 178.737L225.467 177.262C226.72 174.729 228.974 168.439 230.004 164.487C231.646 158.197 232.62 151.879 232.898 145.617C233.065 142.222 233.038 141.665 232.676 141.665C232.453 141.665 230.895 142.389 229.197 143.279Z" fill="#39545F"/>
<path d="M150.738 154.022C148.289 157.752 146.313 160.897 146.313 161.008C146.341 161.12 148.011 163.04 150.07 165.267C154.356 169.942 159.617 175.787 175.898 193.85C191.15 210.772 194.351 214.307 194.462 214.307C194.908 214.307 205.957 205.261 205.957 204.927C205.957 204.844 204.538 203.202 202.812 201.253C198.637 196.605 173.143 167.465 168.412 161.982C163.652 156.444 155.47 147.259 155.303 147.259C155.219 147.259 153.16 150.293 150.738 154.022Z" fill="#39545F"/>
<path d="M200.92 167.493C200.196 168.356 198.164 170.889 196.355 173.115C194.546 175.342 192.96 177.318 192.82 177.485C192.626 177.735 192.848 178.181 193.6 179.043C197.719 183.636 208.1 195.325 209.575 197.023L211.384 199.055L212.303 197.997C213.722 196.383 218.537 189.926 219.706 188.061L220.736 186.447L218.398 183.886C215.977 181.214 205.484 169.441 203.619 167.271C203.035 166.575 202.45 165.99 202.367 165.962C202.283 165.907 201.615 166.603 200.92 167.493Z" fill="#39545F"/>
<path d="M139.633 170.583C130.115 184.359 115.002 199.917 98.3862 213.082C96.0762 214.891 93.7104 216.7 93.1538 217.09C92.5972 217.479 92.124 217.869 92.124 217.98C92.124 218.314 102.004 223.046 105.957 224.604L109.658 226.052L111.801 224.159C125.021 212.47 127.081 210.549 141.999 195.687L154.997 182.773L154.384 181.994C154.05 181.604 151.462 178.709 148.623 175.564C145.784 172.447 143.084 169.414 142.583 168.857C142.083 168.3 141.637 167.827 141.609 167.827C141.554 167.855 140.691 169.08 139.633 170.583Z" fill="#39545F"/>
<path d="M154.579 193.989L149.013 199.528L152.881 203.786C160.841 212.498 162.511 214.334 167.549 219.929L172.698 225.606L174.757 224.827C177.485 223.77 184.276 220.625 186.141 219.567L187.616 218.732L184.332 215.058C182.55 213.026 179.739 209.937 178.125 208.184C174.34 204.064 168.913 197.997 164.237 192.737C162.205 190.427 160.452 188.534 160.34 188.506C160.257 188.451 157.668 190.928 154.579 193.989Z" fill="#39545F"/>
<path d="M139.578 208.963C137.435 211.078 134.846 213.555 133.816 214.474L131.952 216.116L134.624 219.038C136.099 220.652 139.077 223.964 141.275 226.386L145.283 230.811L147.148 230.755C150.961 230.644 162.762 228.891 163.792 228.278C164.014 228.139 161.593 225.3 156.778 220.012C150.738 213.388 144.393 206.291 143.613 205.345C143.53 205.233 141.721 206.875 139.578 208.963Z" fill="#39545F"/>
<path d="M124.799 222.879C124.187 223.436 122.544 224.938 121.125 226.191C119.733 227.443 118.676 228.529 118.787 228.612C119.566 229.085 130.811 230.728 133.26 230.728H134.206L133.26 229.642C131.729 227.861 126.274 221.96 126.107 221.905C126.023 221.877 125.439 222.322 124.799 222.879Z" fill="#39545F"/>
</svg>
