<svg width="285" height="285" viewBox="0 0 285 285" fill="none" xmlns="http://www.w3.org/2000/svg">
<path d="M140.607 37.3228C139.355 37.6846 137.602 39.5493 137.24 40.8296C137.045 41.4976 136.934 46.8692 136.934 55.8032V69.7193L137.602 71.1665C138.798 73.7271 141.303 74.7847 144.253 73.9219C145.979 73.4209 147.037 72.3911 147.51 70.749C147.732 70.0532 147.788 64.9878 147.732 55.0518L147.649 40.4121L146.786 39.3267C146.313 38.7422 145.534 38.0464 145.061 37.7681C144.031 37.1558 141.832 36.9331 140.607 37.3228Z" fill="#39545F"/>
<path d="M113.666 49.2349C112.441 49.541 111.217 50.543 110.521 51.7954C109.408 53.7715 109.602 54.9404 112.58 63.4292C114.056 67.6318 115.447 71.417 115.67 71.8345C115.865 72.252 116.533 72.9756 117.089 73.3931C117.952 74.061 118.369 74.1724 119.789 74.1724C121.876 74.1724 123.268 73.3931 124.242 71.7231C125.606 69.3574 125.55 68.8843 122.6 60.1172C121.153 55.7754 119.622 51.7119 119.232 51.1274C118.091 49.4019 116.004 48.6782 113.666 49.2349Z" fill="#39545F"/>
<path d="M169.135 49.2627C167.938 49.6245 166.575 50.7935 166.074 51.8511C165.823 52.3799 164.487 56.1094 163.096 60.1172C160.507 67.7432 160.229 69.0513 160.98 70.7769C161.787 72.7251 164.098 74.3115 166.101 74.3115C167.549 74.3115 169.914 72.8086 170.666 71.4448C170.805 71.1387 172.113 67.4648 173.588 63.2344C175.954 56.3042 176.204 55.3579 176.121 53.9385C176.037 52.686 175.815 52.1016 175.175 51.2944C173.672 49.4019 171.306 48.6226 169.135 49.2627Z" fill="#39545F"/>
<path d="M83.3569 65.3774C82.0488 65.9897 80.8798 67.1587 80.4623 68.272C79.9892 69.5244 80.1005 71.7231 80.685 72.8643C80.9912 73.4209 85.0825 77.7349 89.8139 82.4385C98.9706 91.5396 98.9985 91.5674 101.754 91.5674C105.261 91.5674 108.127 87.4761 106.736 84.498C106.012 82.9951 89.2294 66.0176 87.81 65.3774C86.3906 64.7095 84.7763 64.7095 83.3569 65.3774Z" fill="#39545F"/>
<path d="M197.607 65.1826C196.884 65.4053 194.462 67.6597 187.922 74.2837C183.023 79.1821 178.932 83.5518 178.626 84.1641C177.012 87.3369 179.878 91.5674 183.663 91.5674C186.196 91.5674 187.003 90.8994 195.631 82.0767C200.53 77.0669 203.925 73.3652 204.287 72.6416C205.567 70.1645 204.593 67.0474 202.116 65.6001C201.086 64.9878 198.888 64.7651 197.607 65.1826Z" fill="#39545F"/>
<path d="M140.552 81.0747C140.468 81.1304 139.411 81.2695 138.186 81.3809C127.916 82.2437 116.728 87.3091 109.129 94.5176C99.6387 103.535 94.7959 113.555 93.4878 126.914C92.5693 136.321 95.436 148.317 100.585 156.611C104.203 162.483 108.99 167.799 113.722 171.278C115.948 172.92 121.097 175.898 121.654 175.898C121.849 175.898 121.904 175.648 121.793 175.258C121.709 174.924 121.626 172.336 121.626 169.497V164.348L119.511 162.706C111.746 156.583 105.873 146.953 104.259 137.629C103.591 133.816 103.674 126.775 104.398 123.212C105.233 119.149 106.43 115.753 108.044 112.72C110.076 108.879 111.606 106.819 114.918 103.535C121.431 97.0503 129.28 93.2095 138.325 92.0962C154.969 90.0645 172.475 100.641 178.682 116.505C179.294 118.091 180.073 120.374 180.435 121.57L181.047 123.797L184.109 125.968C185.807 127.165 188.061 128.779 189.174 129.614C190.288 130.421 191.345 131.089 191.512 131.089C192.041 131.089 191.651 125.94 190.816 121.709C187.337 104.175 175.453 90.2036 158.782 84.1084C155.832 83.0229 150.683 81.7427 148.066 81.4365C145.84 81.186 140.691 80.9077 140.552 81.0747Z" fill="#39545F"/>
<path d="M212.776 93.46C211.245 94.0166 199.222 101.002 198.248 101.949C197.329 102.784 196.216 105.149 196.216 106.235C196.216 109.129 198.749 111.606 201.727 111.606C203.313 111.606 204.844 110.911 209.854 107.821C211.607 106.736 213.945 105.316 215.058 104.676C218.815 102.505 219.873 101.142 219.873 98.3584C219.873 94.5732 216.394 92.1797 212.776 93.46Z" fill="#39545F"/>
<path d="M67.771 93.7104C66.4907 94.3784 65.9341 94.9629 65.3774 96.1596C64.292 98.5254 65.0156 101.336 67.1587 103.062C68.4111 104.064 79.043 110.159 81.186 111.105C85.6113 113.054 90.1201 108.795 88.3945 104.287C88.1441 103.619 87.4761 102.644 86.8916 102.088C85.9453 101.169 74.5899 94.5175 72.4746 93.6269C71.25 93.0981 68.8286 93.1538 67.771 93.7104Z" fill="#39545F"/>
<path d="M54.5507 126.246C51.2387 127.693 50.4316 131.868 52.9921 134.651C54.4115 136.238 54.0497 136.21 69.246 136.154C82.7167 136.099 83.2455 136.099 84.331 135.542C87.977 133.677 87.977 128.222 84.3031 126.357C83.2734 125.829 82.6332 125.801 69.3852 125.801C57.6679 125.829 55.3857 125.884 54.5507 126.246Z" fill="#39545F"/>
<path d="M200.78 126.33C197.19 127.972 196.939 133.176 200.363 135.403L201.365 136.071L215.42 136.154C230.588 136.238 229.976 136.293 231.646 134.735C232.843 133.649 233.232 132.675 233.232 130.838C233.232 129.391 233.121 129.029 232.342 127.999C230.56 125.717 231.256 125.801 215.698 125.801C202.895 125.801 201.838 125.856 200.78 126.33Z" fill="#39545F"/>
<path d="M170.805 129.836C170.193 130.059 167.437 131.729 164.682 133.538C156.666 138.798 152.547 141.108 149.597 142.055C147.51 142.723 143.53 143.057 137.49 143.057C132.842 143.057 131.896 143.14 130.95 143.585C129.419 144.281 128.083 145.728 127.721 147.064C127.526 147.816 127.471 152.742 127.554 162.372C127.693 177.401 127.805 178.96 129.168 184.526C130.755 190.9 134.011 198.609 137.546 204.426C143.391 214 151.239 221.738 163.569 230.087C169.414 234.04 171.028 234.902 172.976 235.097C174.924 235.292 176.483 234.735 179.656 232.759C188.423 227.221 197.468 219.511 203.73 212.219C210.299 204.565 216.116 192.737 218.064 182.996C219.205 177.346 219.316 175.564 219.316 161.342C219.316 146.424 219.316 146.369 217.841 144.754C216.45 143.251 215.503 143.057 209.158 143.057C198.359 143.057 196.995 142.583 184.721 134.651C177.429 129.92 176.761 129.614 174.117 129.502C172.614 129.447 171.501 129.558 170.805 129.836ZM178.515 143.446C186.53 148.762 190.315 150.822 194.852 152.352C197.663 153.299 200.057 153.633 204.315 153.633C207.042 153.633 207.905 153.716 208.156 154.022C208.406 154.329 208.462 157.529 208.378 166.909C208.295 179.322 208.267 179.377 207.543 182.188C206.625 185.807 204.872 190.538 203.09 194.351C202.339 195.993 201.754 197.385 201.81 197.413C201.866 197.468 202.45 197.83 203.118 198.275C207.293 200.947 204.259 207.877 198.693 208.406C197.635 208.49 197.106 208.378 195.965 207.766L194.546 206.987L191.568 209.881C186.781 214.501 174.896 223.742 173.728 223.769C173.31 223.769 169.581 221.32 165.628 218.398C157.835 212.692 150.961 205.901 147.009 200.029C143.001 194.101 140.106 186.809 138.882 179.517C138.409 176.733 138.325 174.924 138.325 165.517C138.325 158.587 138.436 154.523 138.603 154.162C138.882 153.688 139.216 153.633 142.5 153.633C144.476 153.633 147.064 153.494 148.261 153.354C153.549 152.631 159.478 149.875 167.827 144.198C170.972 142.055 173.588 140.301 173.644 140.301C173.728 140.273 175.898 141.693 178.515 143.446Z" fill="#39545F"/>
<path d="M171.306 158.615C169.998 159.227 168.829 160.396 168.412 161.509C168.245 161.955 168.105 164.432 168.105 167.298C168.105 172.559 167.911 173.616 166.797 174.117C166.519 174.229 163.402 174.396 159.867 174.479C153.661 174.646 153.41 174.674 152.464 175.314C150.71 176.539 150.154 177.652 150.154 180.073C150.154 181.91 150.265 182.355 150.905 183.33C151.351 183.998 152.13 184.693 152.854 185.055C153.995 185.584 154.551 185.64 160.285 185.64H166.491L167.298 186.447L168.105 187.254V194.462C168.105 201.365 168.133 201.727 168.746 202.896C169.107 203.619 169.859 204.482 170.555 204.983C172.948 206.625 176.706 205.874 178.32 203.396L179.099 202.255L179.238 194.852C179.377 187.254 179.489 186.53 180.546 186.029C180.825 185.89 183.942 185.723 187.504 185.64L193.934 185.5L194.991 184.638C198.22 182.021 197.997 177.207 194.518 175.091C193.655 174.563 193.154 174.507 188.005 174.507C184.944 174.507 181.966 174.368 181.381 174.201C179.544 173.7 179.405 173.171 179.238 166.992C179.099 161.621 179.071 161.509 178.348 160.396C176.956 158.281 173.783 157.474 171.306 158.615Z" fill="#39545F"/>
<path d="M81.5477 151.712C81.158 151.851 78.0408 153.577 74.6175 155.525C67.7151 159.422 65.7112 161.008 65.1268 163.012C64.3753 165.489 65.6277 168.328 67.9656 169.525C68.8563 169.97 69.4686 170.081 70.6932 169.998C72.1683 169.887 72.8084 169.553 79.1541 165.767C82.9393 163.485 86.3904 161.342 86.8358 160.98C88.6448 159.45 89.285 156.527 88.2552 154.523C86.9749 152.018 83.9691 150.766 81.5477 151.712Z" fill="#39545F"/>
<path d="M99.7778 171.083C98.4976 171.751 97.9688 172.252 91.6787 178.821C79.5439 191.484 80.1841 190.677 80.1562 193.099C80.1562 195.409 81.2695 197.19 83.4683 198.303C84.6372 198.888 86.9473 198.749 88.2275 197.969C88.7007 197.691 91.4839 194.908 94.4062 191.763C97.3286 188.618 101.225 184.499 103.062 182.606C104.899 180.686 106.625 178.654 106.903 178.014C108.183 175.175 106.792 171.668 104.064 170.889C102.672 170.471 100.724 170.583 99.7778 171.083Z" fill="#39545F"/>
<path d="M118.425 187.727C116.199 188.534 115.809 189.258 112.859 198.164C109.853 207.237 109.797 207.627 111.3 209.881C113.36 212.943 117.256 213.249 119.622 210.549C120.596 209.436 120.986 208.49 123.101 202.033L125.467 194.768L124.827 192.598C124.103 190.093 123.435 188.84 122.461 188.117C121.487 187.393 119.761 187.226 118.425 187.727Z" fill="#39545F"/>
</svg>
