<svg width="285" height="285" viewBox="0 0 285 285" fill="none" xmlns="http://www.w3.org/2000/svg">
<path d="M177.902 56.2207C177.151 56.5269 176.733 57.5288 176.733 59.0317V60.1172H175.091C173.672 60.1172 173.366 60.2007 173.004 60.7295C172.753 61.0635 172.559 61.6201 172.559 61.9263C172.559 62.2324 172.753 62.7891 173.004 63.123C173.366 63.6519 173.672 63.7354 175.091 63.7354H176.733V65.127C176.733 66.8247 177.401 67.6318 178.765 67.6318C180.185 67.6318 180.602 67.1587 180.686 65.4053L180.769 63.8745L182.578 63.791C184.666 63.7075 185.083 63.3457 185.083 61.7593C185.083 60.4233 184.554 60.0337 182.55 59.8945L180.908 59.7832V58.4473C180.908 57.0835 180.435 56.2207 179.656 56.2207C179.461 56.2207 179.127 56.165 178.904 56.1094C178.709 56.0259 178.264 56.0815 177.902 56.2207Z" fill="#39545F"/>
<path d="M118.926 59.4214C115.531 60.8965 116.783 66.2402 120.513 66.2402C122.35 66.2402 124.131 64.5425 124.131 62.8169C124.131 60.0059 121.515 58.2803 118.926 59.4214Z" fill="#39545F"/>
<path d="M94.7124 60.2564C93.46 60.7852 93.2373 61.4253 93.2373 64.4033V67.0752H90.5933C87.3926 67.0752 86.8359 67.437 86.8359 69.4409C86.8359 71.417 87.4204 71.8067 90.3984 71.8067C91.9292 71.8067 92.959 71.918 93.1816 72.1406C93.3765 72.3355 93.5156 73.3931 93.5156 74.896C93.5156 77.7905 93.5991 78.0967 94.6846 78.6533C95.7422 79.21 96.9668 78.9317 97.6904 78.0132C98.1636 77.4009 98.2471 76.8721 98.2471 74.562V71.8067H101.002C103.674 71.8067 103.786 71.7788 104.342 71.083C104.676 70.6655 104.927 69.9419 104.927 69.4409C104.927 68.94 104.676 68.2163 104.342 67.7988C103.813 67.1309 103.619 67.0752 101.448 67.0752C100.167 67.0752 98.9429 66.9917 98.6924 66.9082C98.3306 66.7691 98.2471 66.2681 98.2471 64.2363C98.2471 61.3975 98.0244 60.7852 96.7163 60.2285C95.603 59.7832 95.8257 59.7554 94.7124 60.2564Z" fill="#39545F"/>
<path d="M141.248 63.2623C140.468 63.7076 139.132 65.2105 136.655 68.4668C132.425 74.0611 125.662 81.0191 121.375 84.1919C113.61 89.8975 105.929 93.4322 93.9888 96.7442C89.8696 97.8853 87.9771 99.3326 86.9751 102.116C86.3628 103.841 86.3628 124.604 86.9751 130.978C88.7842 150.098 95.4082 167.243 106.541 181.743C108.573 184.359 111.161 187.449 111.996 188.228C112.302 188.479 112.469 188.757 112.414 188.84C112.33 188.896 110.66 189.091 108.656 189.23C104.537 189.564 103.312 189.842 97.5513 191.846C93.3765 193.293 93.3765 193.293 89.8975 193.293H86.4185L81.2695 191.512C75.063 189.369 73.5879 189.23 70.7212 190.51C68.2998 191.596 67.0752 193.071 67.0752 194.88C67.0752 197.301 68.6895 198.164 71.3892 197.19C73.4209 196.466 75.397 196.661 78.6812 197.886C82.856 199.472 85.7227 200.168 88.6729 200.307C92.0684 200.502 94.1279 200.112 99.9448 198.136C104.398 196.633 105.066 196.494 107.181 196.494C109.074 196.494 109.964 196.661 111.885 197.357C120.401 200.418 122.377 200.752 125.105 199.444C127.359 198.387 128.862 196.439 128.862 194.602V193.405L122.071 186.669C117.729 182.355 114.584 178.988 113.36 177.29C102.422 162.428 96.9946 148.623 94.6289 129.697C94.4341 128.25 94.2114 122.322 94.1558 116.533C94.0166 107.209 94.0723 105.957 94.4619 105.344C95.1021 104.398 95.5752 104.175 100.084 102.951C110.076 100.279 118.147 96.4102 125.94 90.5933C131.395 86.5577 138.214 79.6831 142.5 73.9497C143.029 73.2539 143.53 72.6695 143.613 72.6695C143.697 72.6695 144.894 74.0611 146.257 75.7588C149.347 79.5718 155.358 85.834 158.476 88.4781C161.788 91.2891 167.187 94.8238 171.668 97.0782C177.151 99.8892 180.268 101.086 186.948 102.951C191.123 104.12 191.958 104.454 192.514 105.177C192.765 105.511 192.848 108.211 192.876 115.698C192.876 124.103 192.792 126.58 192.292 130.727C190.315 147.927 184.387 162.984 174.312 176.511C171.39 180.407 165.601 186.53 160.229 191.345C158.225 193.182 158.086 193.377 158.086 194.435C158.086 195.715 159.004 197.19 160.619 198.554C163.346 200.864 164.877 200.725 174.646 197.134C176.177 196.578 177.123 196.411 179.099 196.411C181.743 196.383 182.3 196.522 187.143 198.275C194.908 201.114 200.224 201.059 207.905 198.025C211.134 196.745 213.833 196.466 215.865 197.162C217.786 197.802 218.676 197.747 219.456 196.884C219.957 196.327 220.151 195.826 220.151 194.963C220.151 193.238 218.982 191.763 216.645 190.622C214 189.314 212.136 189.369 207.71 190.928C201.532 193.126 200.224 193.433 197.635 193.433C194.769 193.433 193.071 193.043 187.644 191.206C183.302 189.759 181.604 189.425 177.151 189.119C174.98 188.952 174.479 188.84 174.813 188.59C175.564 188.033 178.487 184.499 181.075 181.047C191.985 166.408 198.081 150.599 200.168 131.506C200.418 129.252 200.53 124.047 200.53 115.503C200.53 101.643 200.585 102.06 198.832 99.7779C197.691 98.2471 196.132 97.5235 190.733 95.8814C180.296 92.7364 174.562 90.0923 167.632 85.2495C161.509 80.9912 156.305 75.8423 151.156 69.0235C148.15 65.0157 146.842 63.5684 145.784 63.0118C144.643 62.4273 142.556 62.5386 141.248 63.2623Z" fill="#39545F"/>
<path d="M198.693 68.4389C198.081 68.9121 198.025 69.2461 197.886 72.0015L197.747 75.0073L195.047 75.0908C192.514 75.1743 192.319 75.2021 191.763 75.8979C191.067 76.7886 191.039 77.8183 191.763 78.9595L192.291 79.8501L195.019 79.9336L197.747 80.0171L197.886 82.6055C197.997 84.8042 198.108 85.2773 198.582 85.6113C199.806 86.5019 201.337 86.4463 202.339 85.4443C202.812 84.9712 202.895 84.498 202.895 82.522V80.1562H204.983C207.571 80.1562 208.796 79.6831 209.269 78.5141C209.659 77.5957 209.547 76.7051 208.907 75.8423C208.573 75.3691 208.1 75.2578 205.762 75.1465L203.035 75.0073L202.895 72.0015C202.756 69.2461 202.701 68.9399 202.088 68.4389C201.253 67.7431 199.528 67.7431 198.693 68.4389Z" fill="#39545F"/>
<path d="M69.4131 99.3325C68.1606 100.084 67.6318 100.975 67.6318 102.283C67.6318 105.678 71.7231 107.098 74.0054 104.481C76.5938 101.559 72.7529 97.3008 69.4131 99.3325Z" fill="#39545F"/>
<path d="M117.145 108.517C116.533 108.99 116.477 109.324 116.338 112.08L116.199 115.085L113.276 115.169C110.159 115.252 109.575 115.475 109.241 116.811C109.018 117.73 109.575 119.316 110.215 119.678C110.493 119.845 111.996 119.956 113.527 119.956H116.338V122.711C116.338 125.244 116.394 125.55 117.006 126.274C117.897 127.304 119.594 127.359 120.624 126.385C121.264 125.773 121.348 125.495 121.403 122.906L121.487 120.095L124.465 120.012C127.332 119.928 127.471 119.9 128.027 119.177C128.501 118.592 128.612 118.175 128.501 117.368C128.25 115.447 127.805 115.225 124.354 115.225H121.348V112.191C121.348 109.241 121.32 109.129 120.624 108.573C119.678 107.821 118.008 107.793 117.145 108.517Z" fill="#39545F"/>
<path d="M141.943 110.827C141.275 111.3 140.329 112.692 138.548 115.893C137.184 118.314 133.455 124.771 130.282 130.226C120.429 147.037 119.984 147.927 119.372 153.215C118.787 158.114 119.984 163.625 122.628 168.161C124.409 171.25 128.695 175.564 131.673 177.234C135.653 179.461 139.077 180.352 143.919 180.352C152.826 180.352 160.591 175.731 165.211 167.632C167.27 164.014 167.883 161.704 168.05 156.806C168.161 153.215 168.078 152.297 167.604 150.404C166.63 146.619 166.046 145.422 160.145 135.264C157 129.836 152.575 122.21 150.349 118.314C146.062 110.911 145.506 110.215 143.725 110.215C143.251 110.215 142.444 110.493 141.943 110.827ZM151.824 138.381C152.38 138.631 153.243 140.106 155.72 145.005C159.477 152.492 160.034 153.995 160.034 156.778C160.034 162.456 155.971 168.412 153.577 166.241C153.048 165.768 152.881 163.958 153.327 163.513C154.356 162.4 155.581 158.949 155.581 157.084C155.581 155.442 155.136 154.301 151.629 147.204C148.901 141.582 148.567 140.774 148.734 139.884C148.873 139.188 149.152 138.771 149.681 138.464C150.599 137.963 150.905 137.963 151.824 138.381Z" fill="#39545F"/>
<path d="M170.137 111.746C168.885 112.274 168.662 112.915 168.662 116.032V118.843H166.046C162.706 118.843 162.122 119.205 162.122 121.292C162.122 123.491 162.595 123.825 165.851 123.908L168.523 123.992L168.579 125.94C168.718 129.892 169.247 130.811 171.306 130.811C173.227 130.811 173.644 130.115 173.728 126.775L173.811 123.992L176.65 123.908C179.322 123.825 179.517 123.797 180.073 123.101C180.741 122.238 180.797 120.624 180.212 119.761C179.656 118.954 178.181 118.564 175.704 118.564H173.672V115.67C173.672 112.553 173.505 112.135 172.085 111.579C171.25 111.272 171.223 111.272 170.137 111.746Z" fill="#39545F"/>
<path d="M219.177 113.666C218.815 113.944 218.621 114.501 218.537 115.753L218.426 117.451H216.672C214.641 117.451 214.028 117.924 214.028 119.455C214.028 120.875 214.696 121.348 216.756 121.348H218.481V122.739C218.481 124.493 219.122 125.244 220.652 125.244C222.127 125.244 222.656 124.604 222.656 122.795V121.348H224.604C226.358 121.348 226.581 121.292 226.998 120.652C227.499 119.9 227.36 118.203 226.748 117.813C226.553 117.702 225.606 117.535 224.604 117.451L222.795 117.312L222.712 115.642C222.656 114.473 222.489 113.861 222.183 113.61C221.571 113.165 219.845 113.193 219.177 113.666Z" fill="#39545F"/>
<path d="M100.863 130.365C99.6944 131.534 99.6665 132.202 100.613 137.101C101.587 141.999 102.728 145.979 104.704 151.351C106.096 155.052 106.569 155.999 107.348 156.694C108.601 157.808 109.881 157.808 111.05 156.75C112.33 155.609 112.414 154.468 111.328 151.796C109.241 146.675 107.348 140.134 106.179 134.15C105.623 131.145 105.316 130.393 104.481 129.836C103.34 129.085 101.921 129.308 100.863 130.365Z" fill="#39545F"/>
<path d="M213.861 139.271C211.022 140.524 211.162 144.671 214.084 145.784C216.144 146.563 218.12 145.534 218.788 143.391C219.066 142.416 219.038 142.138 218.593 141.22C217.98 139.967 216.505 138.882 215.448 138.882C215.058 138.91 214.334 139.077 213.861 139.271Z" fill="#39545F"/>
<path d="M69.7749 155.804C69.4687 156.138 69.3017 156.806 69.3017 157.752V159.199H67.3535C65.6001 159.199 65.3774 159.255 64.9599 159.895C64.4033 160.73 64.5981 162.149 65.3496 162.706C65.6279 162.929 66.5742 163.068 67.5762 163.096H69.3017V164.599C69.3017 166.491 69.7471 166.992 71.3891 166.992C72.9199 166.992 73.4766 166.296 73.4766 164.432V163.096H75.23C77.3174 163.096 78.041 162.539 78.041 161.008C78.041 159.533 77.5679 159.199 75.397 159.199H73.4766V157.808C73.4766 156.778 73.3374 156.277 72.9199 155.859C72.1963 155.136 70.415 155.108 69.7749 155.804Z" fill="#39545F"/>
<path d="M210.382 161.12C209.77 161.593 209.714 161.927 209.575 164.543L209.436 167.41L206.764 167.493C203.591 167.577 203.035 167.938 203.035 169.915C203.035 171.891 203.619 172.28 206.542 172.28C207.877 172.28 209.158 172.364 209.408 172.447C209.77 172.586 209.854 173.087 209.854 174.924C209.854 176.205 209.937 177.457 210.021 177.707C210.299 178.431 211.746 179.043 212.804 178.821C214.223 178.57 214.585 177.819 214.585 175.203C214.585 173.811 214.724 172.809 214.919 172.614C215.114 172.419 216.171 172.28 217.646 172.28C219.595 172.28 220.151 172.197 220.513 171.779C221.209 171.028 221.348 169.942 220.875 168.857C220.402 167.688 220.096 167.577 216.951 167.493L214.724 167.41L214.641 164.571C214.557 161.899 214.529 161.704 213.833 161.147C212.915 160.424 211.245 160.424 210.382 161.12Z" fill="#39545F"/>
<path d="M104.37 202.172C103.535 202.367 100.891 203.229 98.4976 204.092C96.104 204.955 93.293 205.79 92.2632 205.985C88.9233 206.569 85.5835 206.013 80.5737 204.037C77.2895 202.756 75.4526 202.422 74.0054 202.868C70.8603 203.814 70.1367 207.265 72.6138 209.38C73.4209 210.048 73.7549 210.132 75.5361 210.132C77.2061 210.132 78.041 210.327 80.5181 211.245C82.2158 211.885 84.7207 212.581 86.3071 212.832C90.8437 213.583 93.0981 213.166 101.67 210.021C106.346 208.295 108.267 208.378 113.583 210.577C118.23 212.47 120.652 213.026 124.548 213.026C128.417 213.054 130.56 212.581 135.932 210.549C142.083 208.211 144.198 208.211 150.46 210.633C159.032 213.973 163.791 213.945 172.308 210.577C178.264 208.239 180.574 208.239 186.697 210.661C194.713 213.806 199.417 213.917 207.015 211.078C209.102 210.327 209.993 210.132 211.663 210.132C213.583 210.132 213.806 210.076 214.724 209.269C215.977 208.156 216.422 206.625 215.893 205.317C215.364 204.12 213.973 202.951 212.748 202.729C211.607 202.534 209.241 202.979 207.432 203.758C204.454 205.039 200.975 206.013 198.832 206.152C195.91 206.347 193.572 205.929 189.119 204.371C182.912 202.2 180.797 201.727 178.431 201.894C177.207 202.005 175.425 202.395 173.978 202.923C165.545 205.957 165.267 206.041 162.539 206.18C159.478 206.319 156.611 205.734 152.603 204.176C144.838 201.17 142.472 201.142 134.401 204.037C132.313 204.788 129.809 205.567 128.834 205.818C124.882 206.736 120.429 206.124 114.668 203.87C109.63 201.894 107.181 201.476 104.37 202.172Z" fill="#39545F"/>
<path d="M103.396 215.002C102.617 215.197 101.114 215.698 100.056 216.116C91.6788 219.316 89.5635 219.539 83.2735 217.73C80.2955 216.867 79.5162 216.979 78.6812 218.426C77.9297 219.706 78.2359 221.014 79.6553 222.545C80.9634 223.964 82.689 224.688 86.3628 225.328C90.7603 226.107 92.8199 225.773 100.056 223.129C103.758 221.794 104.092 221.71 106.736 221.71C109.269 221.71 109.77 221.794 112.441 222.768C119.205 225.245 122.35 225.885 126.079 225.607C128.946 225.412 131.813 224.688 135.292 223.352C141.749 220.847 144.059 220.903 151.879 223.742C159.561 226.497 163.291 226.358 172.976 222.935C175.592 221.988 176.817 221.71 178.682 221.599C181.381 221.46 182.244 221.654 187.727 223.63C193.794 225.801 196.773 226.135 201.448 225.189C205.066 224.438 207.265 223.213 208.156 221.432C208.74 220.263 208.796 219.984 208.49 219.01C208.072 217.674 207.126 216.979 205.901 217.146C205.4 217.229 203.87 217.619 202.478 218.064C198.053 219.428 193.989 219.01 187.56 216.561C180.463 213.861 178.598 213.889 170.861 216.7C165.74 218.565 164.654 218.815 161.565 218.815C158.559 218.843 155.692 218.203 150.989 216.45C149.152 215.782 146.981 215.058 146.146 214.863C143.864 214.335 140.023 214.641 137.49 215.559C128.334 218.899 126.051 219.344 121.932 218.648C120.541 218.398 117.785 217.619 115.837 216.895C109.269 214.502 106.708 214.112 103.396 215.002Z" fill="#39545F"/>
<path d="M102.979 227.889C101.086 228.417 97.9688 229.753 97.9688 230.004C97.9688 230.115 102.199 230.171 107.376 230.171C117.813 230.143 117.674 230.199 112.72 228.501C109.352 227.332 105.762 227.109 102.979 227.889Z" fill="#39545F"/>
<path d="M138.047 228.111C136.739 228.501 135.069 229.113 134.29 229.475L132.898 230.115L143.057 230.143C153.076 230.143 153.188 230.143 152.241 229.642C149.597 228.25 146.87 227.583 143.613 227.471C140.802 227.388 140.106 227.471 138.047 228.111Z" fill="#39545F"/>
<path d="M175.063 227.917C173.171 228.445 169.497 229.865 169.497 230.06C169.497 230.115 173.922 230.171 179.322 230.171C190.26 230.143 190.037 230.227 185.222 228.417C182.3 227.332 177.875 227.109 175.063 227.917Z" fill="#39545F"/>
</svg>
